<svg width="762" height="186" viewBox="0 0 762 186" fill="none" xmlns="http://www.w3.org/2000/svg">
<path fill-rule="evenodd" clip-rule="evenodd" d="M95 0C42.5125 0 0 42.5125 0 95C0 137.038 27.1937 172.544 64.9562 185.131C69.7062 185.963 71.4875 183.113 71.4875 180.619C71.4875 178.363 71.3688 170.881 71.3688 162.925C47.5 167.319 41.325 157.106 39.425 151.762C38.3563 149.031 33.725 140.6 29.6875 138.344C26.3625 136.562 21.6125 132.169 29.5688 132.05C37.05 131.931 42.3937 138.938 44.175 141.787C52.725 156.156 66.3812 152.119 71.8438 149.625C72.675 143.45 75.1687 139.294 77.9 136.919C56.7625 134.544 34.675 126.35 34.675 90.0125C34.675 79.6813 38.3563 71.1312 44.4125 64.4812C43.4625 62.1062 40.1375 52.3687 45.3625 39.3062C45.3625 39.3062 53.3187 36.8125 71.4875 49.0438C79.0875 46.9062 87.1625 45.8375 95.2375 45.8375C103.313 45.8375 111.388 46.9062 118.988 49.0438C137.156 36.6938 145.113 39.3062 145.113 39.3062C150.338 52.3687 147.012 62.1062 146.062 64.4812C152.119 71.1312 155.8 79.5625 155.8 90.0125C155.8 126.469 133.594 134.544 112.456 136.919C115.9 139.887 118.869 145.588 118.869 154.494C118.869 167.2 118.75 177.413 118.75 180.619C118.75 183.113 120.531 186.081 125.281 185.131C162.806 172.544 190 136.919 190 95C190 42.5125 147.488 0 95 0Z" fill="#C17AFF"/>
<path d="M252 125C247.667 124.933 244.133 124.467 241.4 123.6C238.733 122.733 236.6 121.533 235 120C233.467 118.4 232.4 116.5 231.8 114.3C231.267 112.033 231 109.5 231 106.7V48.8L245.9 46.4V103.7C245.9 105.033 246 106.233 246.2 107.3C246.4 108.367 246.767 109.267 247.3 110C247.9 110.733 248.733 111.333 249.8 111.8C250.867 112.267 252.3 112.567 254.1 112.7L252 125Z" fill="#E26A44"/>
<path d="M311.841 97.6C311.841 101.733 311.241 105.533 310.041 109C308.841 112.4 307.107 115.333 304.841 117.8C302.574 120.2 299.841 122.067 296.641 123.4C293.507 124.733 289.974 125.4 286.041 125.4C282.174 125.4 278.641 124.733 275.441 123.4C272.307 122.067 269.607 120.2 267.341 117.8C265.074 115.333 263.307 112.4 262.041 109C260.774 105.533 260.141 101.733 260.141 97.6C260.141 93.4667 260.774 89.7 262.041 86.3C263.374 82.9 265.174 80 267.441 77.6C269.774 75.2 272.507 73.3333 275.641 72C278.841 70.6667 282.307 70 286.041 70C289.841 70 293.307 70.6667 296.441 72C299.641 73.3333 302.374 75.2 304.641 77.6C306.907 80 308.674 82.9 309.941 86.3C311.207 89.7 311.841 93.4667 311.841 97.6ZM296.641 97.6C296.641 93 295.707 89.4 293.841 86.8C292.041 84.1333 289.441 82.8 286.041 82.8C282.641 82.8 280.007 84.1333 278.141 86.8C276.274 89.4 275.341 93 275.341 97.6C275.341 102.2 276.274 105.867 278.141 108.6C280.007 111.267 282.641 112.6 286.041 112.6C289.441 112.6 292.041 111.267 293.841 108.6C295.707 105.867 296.641 102.2 296.641 97.6ZM367.723 96C367.723 104.333 371.09 108.5 377.823 108.5C379.357 108.5 380.79 108.3 382.123 107.9C383.457 107.5 384.59 107.033 385.523 106.5V82.7C384.79 82.5667 383.923 82.4667 382.923 82.4C381.923 82.2667 380.757 82.2 379.423 82.2C375.49 82.2 372.557 83.5 370.623 86.1C368.69 88.7 367.723 92 367.723 96ZM400.423 117.4C400.423 126 398.223 132.367 393.823 136.5C389.49 140.7 382.757 142.8 373.623 142.8C370.423 142.8 367.223 142.5 364.023 141.9C360.823 141.367 357.857 140.633 355.123 139.7L357.723 127.2C360.057 128.133 362.49 128.867 365.023 129.4C367.623 129.933 370.557 130.2 373.823 130.2C378.09 130.2 381.09 129.267 382.823 127.4C384.623 125.533 385.523 123.133 385.523 120.2V118.3C383.923 119.033 382.257 119.6 380.523 120C378.857 120.333 377.023 120.5 375.023 120.5C367.757 120.5 362.19 118.367 358.323 114.1C354.457 109.767 352.523 103.733 352.523 96C352.523 92.1333 353.123 88.6333 354.323 85.5C355.523 82.3 357.257 79.5667 359.523 77.3C361.857 75.0333 364.69 73.3 368.023 72.1C371.357 70.8333 375.123 70.2 379.323 70.2C381.123 70.2 382.957 70.3 384.823 70.5C386.757 70.6333 388.657 70.8333 390.523 71.1C392.39 71.3667 394.157 71.7 395.823 72.1C397.557 72.4333 399.09 72.8 400.423 73.2V117.4ZM463.598 97.6C463.598 101.733 462.998 105.533 461.798 109C460.598 112.4 458.865 115.333 456.598 117.8C454.332 120.2 451.598 122.067 448.398 123.4C445.265 124.733 441.732 125.4 437.798 125.4C433.932 125.4 430.398 124.733 427.198 123.4C424.065 122.067 421.365 120.2 419.098 117.8C416.832 115.333 415.065 112.4 413.798 109C412.532 105.533 411.898 101.733 411.898 97.6C411.898 93.4667 412.532 89.7 413.798 86.3C415.132 82.9 416.932 80 419.198 77.6C421.532 75.2 424.265 73.3333 427.398 72C430.598 70.6667 434.065 70 437.798 70C441.598 70 445.065 70.6667 448.198 72C451.398 73.3333 454.132 75.2 456.398 77.6C458.665 80 460.432 82.9 461.698 86.3C462.965 89.7 463.598 93.4667 463.598 97.6ZM448.398 97.6C448.398 93 447.465 89.4 445.598 86.8C443.798 84.1333 441.198 82.8 437.798 82.8C434.398 82.8 431.765 84.1333 429.898 86.8C428.032 89.4 427.098 93 427.098 97.6C427.098 102.2 428.032 105.867 429.898 108.6C431.765 111.267 434.398 112.6 437.798 112.6C441.198 112.6 443.798 111.267 445.598 108.6C447.465 105.867 448.398 102.2 448.398 97.6ZM495.241 113.6C496.707 113.6 498.107 113.567 499.441 113.5C500.774 113.433 501.841 113.333 502.641 113.2V101.9C502.041 101.767 501.141 101.633 499.941 101.5C498.741 101.367 497.641 101.3 496.641 101.3C495.241 101.3 493.907 101.4 492.641 101.6C491.441 101.733 490.374 102.033 489.441 102.5C488.507 102.967 487.774 103.6 487.241 104.4C486.707 105.2 486.441 106.2 486.441 107.4C486.441 109.733 487.207 111.367 488.741 112.3C490.341 113.167 492.507 113.6 495.241 113.6ZM494.041 70C498.441 70 502.107 70.5 505.041 71.5C507.974 72.5 510.307 73.9333 512.041 75.8C513.841 77.6667 515.107 79.9333 515.841 82.6C516.574 85.2667 516.941 88.2333 516.941 91.5V122.5C514.807 122.967 511.841 123.5 508.041 124.1C504.241 124.767 499.641 125.1 494.241 125.1C490.841 125.1 487.741 124.8 484.941 124.2C482.207 123.6 479.841 122.633 477.841 121.3C475.841 119.9 474.307 118.1 473.241 115.9C472.174 113.7 471.641 111 471.641 107.8C471.641 104.733 472.241 102.133 473.441 100C474.707 97.8667 476.374 96.1667 478.441 94.9C480.507 93.6333 482.874 92.7333 485.541 92.2C488.207 91.6 490.974 91.3 493.841 91.3C495.774 91.3 497.474 91.4 498.941 91.6C500.474 91.7333 501.707 91.9333 502.641 92.2V90.8C502.641 88.2667 501.874 86.2333 500.341 84.7C498.807 83.1667 496.141 82.4 492.341 82.4C489.807 82.4 487.307 82.6 484.841 83C482.374 83.3333 480.241 83.8333 478.441 84.5L476.541 72.5C477.407 72.2333 478.474 71.9667 479.741 71.7C481.074 71.3667 482.507 71.1 484.041 70.9C485.574 70.6333 487.174 70.4333 488.841 70.3C490.574 70.1 492.307 70 494.041 70Z" fill="#51A49F"/>
<path d="M344.383 125C340.049 124.933 336.516 124.467 333.783 123.6C331.116 122.733 328.983 121.533 327.383 120C325.849 118.4 324.783 116.5 324.183 114.3C323.649 112.033 323.383 109.5 323.383 106.7V48.8L338.283 46.4V103.7C338.283 105.033 338.383 106.233 338.583 107.3C338.783 108.367 339.149 109.267 339.683 110C340.283 110.733 341.116 111.333 342.183 111.8C343.249 112.267 344.683 112.567 346.483 112.7L344.383 125Z" fill="#EC8295"/>
<path d="M551.414 125C547.081 124.933 543.547 124.467 540.814 123.6C538.147 122.733 536.014 121.533 534.414 120C532.881 118.4 531.814 116.5 531.214 114.3C530.681 112.033 530.414 109.5 530.414 106.7V48.8L545.314 46.4V103.7C545.314 105.033 545.414 106.233 545.614 107.3C545.814 108.367 546.181 109.267 546.714 110C547.314 110.733 548.147 111.333 549.214 111.8C550.281 112.267 551.714 112.567 553.514 112.7L551.414 125Z" fill="#E68566"/>
</svg>
